<mxfile host="app.diagrams.net" modified="2022-05-03T21:36:46.399Z" agent="5.0 (Windows NT 10.0; Win64; x64) AppleWebKit/537.36 (KHTML, like Gecko) Chrome/100.0.4896.75 Safari/537.36" etag="xwwi1R484V9aVfQdCPsZ" version="17.5.0" type="github">
  <diagram id="kgpKYQtTHZ0yAKxKKP6v" name="Page-1">
    <mxGraphModel dx="1038" dy="571" grid="1" gridSize="10" guides="1" tooltips="1" connect="1" arrows="1" fold="1" page="1" pageScale="1" pageWidth="850" pageHeight="1100" math="0" shadow="0">
      <root>
        <mxCell id="0" />
        <mxCell id="1" parent="0" />
        <mxCell id="3nuBFxr9cyL0pnOWT2aG-1" value="human" style="shape=umlLifeline;perimeter=lifelinePerimeter;container=1;collapsible=0;recursiveResize=0;rounded=0;shadow=0;strokeWidth=1;" parent="1" vertex="1">
          <mxGeometry x="120" y="80" width="100" height="480" as="geometry" />
        </mxCell>
        <mxCell id="3nuBFxr9cyL0pnOWT2aG-2" value="" style="points=[];perimeter=orthogonalPerimeter;rounded=0;shadow=0;strokeWidth=1;" parent="3nuBFxr9cyL0pnOWT2aG-1" vertex="1">
          <mxGeometry x="45" y="70" width="10" height="370" as="geometry" />
        </mxCell>
        <mxCell id="3nuBFxr9cyL0pnOWT2aG-5" value="terminal" style="shape=umlLifeline;perimeter=lifelinePerimeter;container=1;collapsible=0;recursiveResize=0;rounded=0;shadow=0;strokeWidth=1;" parent="1" vertex="1">
          <mxGeometry x="300" y="80" width="100" height="480" as="geometry" />
        </mxCell>
        <mxCell id="GFgm7ISbEf7m12YMh4iF-3" value="adding crypto" style="verticalAlign=bottom;endArrow=block;entryX=0;entryY=0;shadow=0;strokeWidth=1;" edge="1" parent="3nuBFxr9cyL0pnOWT2aG-5">
          <mxGeometry relative="1" as="geometry">
            <mxPoint x="55" y="100.00000000000011" as="sourcePoint" />
            <mxPoint x="225" y="100.00000000000011" as="targetPoint" />
          </mxGeometry>
        </mxCell>
        <mxCell id="3nuBFxr9cyL0pnOWT2aG-6" value="" style="points=[];perimeter=orthogonalPerimeter;rounded=0;shadow=0;strokeWidth=1;" parent="3nuBFxr9cyL0pnOWT2aG-5" vertex="1">
          <mxGeometry x="45" y="70" width="10" height="360" as="geometry" />
        </mxCell>
        <mxCell id="3nuBFxr9cyL0pnOWT2aG-8" value="adding crypto" style="verticalAlign=bottom;endArrow=block;entryX=0;entryY=0;shadow=0;strokeWidth=1;" parent="1" source="3nuBFxr9cyL0pnOWT2aG-2" target="3nuBFxr9cyL0pnOWT2aG-6" edge="1">
          <mxGeometry relative="1" as="geometry">
            <mxPoint x="275" y="160" as="sourcePoint" />
          </mxGeometry>
        </mxCell>
        <mxCell id="GFgm7ISbEf7m12YMh4iF-1" value="algorithim" style="shape=umlLifeline;perimeter=lifelinePerimeter;container=1;collapsible=0;recursiveResize=0;rounded=0;shadow=0;strokeWidth=1;" vertex="1" parent="1">
          <mxGeometry x="480" y="80" width="100" height="480" as="geometry" />
        </mxCell>
        <mxCell id="GFgm7ISbEf7m12YMh4iF-29" value="" style="rounded=1;whiteSpace=wrap;html=1;arcSize=27;" vertex="1" parent="GFgm7ISbEf7m12YMh4iF-1">
          <mxGeometry x="-155" y="250" width="410" height="110" as="geometry" />
        </mxCell>
        <mxCell id="GFgm7ISbEf7m12YMh4iF-19" value="setting grid" style="verticalAlign=bottom;endArrow=block;shadow=0;strokeWidth=1;entryX=0.9;entryY=0.434;entryDx=0;entryDy=0;entryPerimeter=0;" edge="1" parent="GFgm7ISbEf7m12YMh4iF-1">
          <mxGeometry relative="1" as="geometry">
            <mxPoint x="45" y="210.00000000000006" as="sourcePoint" />
            <mxPoint x="-126" y="210.00000000000006" as="targetPoint" />
          </mxGeometry>
        </mxCell>
        <mxCell id="GFgm7ISbEf7m12YMh4iF-23" value=" buy if  price == buying column" style="verticalAlign=bottom;endArrow=block;shadow=0;strokeWidth=1;" edge="1" parent="GFgm7ISbEf7m12YMh4iF-1">
          <mxGeometry relative="1" as="geometry">
            <mxPoint x="36" y="300" as="sourcePoint" />
            <mxPoint x="-125" y="300" as="targetPoint" />
          </mxGeometry>
        </mxCell>
        <mxCell id="GFgm7ISbEf7m12YMh4iF-25" value=" sell if  price == selling column" style="verticalAlign=bottom;endArrow=block;shadow=0;strokeWidth=1;entryX=0.98;entryY=0.778;entryDx=0;entryDy=0;entryPerimeter=0;" edge="1" parent="GFgm7ISbEf7m12YMh4iF-1">
          <mxGeometry relative="1" as="geometry">
            <mxPoint x="36.200000000000045" y="321.06" as="sourcePoint" />
            <mxPoint x="-125.00000000000006" y="320.00000000000006" as="targetPoint" />
          </mxGeometry>
        </mxCell>
        <mxCell id="GFgm7ISbEf7m12YMh4iF-20" value="asking current price" style="verticalAlign=bottom;endArrow=block;entryX=0;entryY=0;shadow=0;strokeWidth=1;" edge="1" parent="GFgm7ISbEf7m12YMh4iF-1">
          <mxGeometry relative="1" as="geometry">
            <mxPoint x="55" y="280.0000000000001" as="sourcePoint" />
            <mxPoint x="225" y="280.0000000000001" as="targetPoint" />
            <Array as="points" />
          </mxGeometry>
        </mxCell>
        <mxCell id="3nuBFxr9cyL0pnOWT2aG-4" value="" style="points=[];perimeter=orthogonalPerimeter;rounded=0;shadow=0;strokeWidth=1;" parent="GFgm7ISbEf7m12YMh4iF-1" vertex="1">
          <mxGeometry x="35" y="290" width="10" height="40" as="geometry" />
        </mxCell>
        <mxCell id="GFgm7ISbEf7m12YMh4iF-22" value="giving prices" style="verticalAlign=bottom;endArrow=block;shadow=0;strokeWidth=1;entryX=0.9;entryY=0.434;entryDx=0;entryDy=0;entryPerimeter=0;" edge="1" parent="GFgm7ISbEf7m12YMh4iF-1">
          <mxGeometry relative="1" as="geometry">
            <mxPoint x="225" y="309.99999999999994" as="sourcePoint" />
            <mxPoint x="54" y="309.99999999999994" as="targetPoint" />
          </mxGeometry>
        </mxCell>
        <mxCell id="GFgm7ISbEf7m12YMh4iF-34" value="giving prices over a period" style="verticalAlign=bottom;endArrow=block;shadow=0;strokeWidth=1;entryX=0.9;entryY=0.434;entryDx=0;entryDy=0;entryPerimeter=0;" edge="1" parent="GFgm7ISbEf7m12YMh4iF-1">
          <mxGeometry relative="1" as="geometry">
            <mxPoint x="226" y="190" as="sourcePoint" />
            <mxPoint x="55" y="190" as="targetPoint" />
          </mxGeometry>
        </mxCell>
        <mxCell id="GFgm7ISbEf7m12YMh4iF-2" value="" style="points=[];perimeter=orthogonalPerimeter;rounded=0;shadow=0;strokeWidth=1;" vertex="1" parent="GFgm7ISbEf7m12YMh4iF-1">
          <mxGeometry x="45" y="80" width="10" height="360" as="geometry" />
        </mxCell>
        <mxCell id="GFgm7ISbEf7m12YMh4iF-4" value="api" style="shape=umlLifeline;perimeter=lifelinePerimeter;container=1;collapsible=0;recursiveResize=0;rounded=0;shadow=0;strokeWidth=1;" vertex="1" parent="1">
          <mxGeometry x="660" y="80" width="100" height="480" as="geometry" />
        </mxCell>
        <mxCell id="GFgm7ISbEf7m12YMh4iF-5" value="" style="points=[];perimeter=orthogonalPerimeter;rounded=0;shadow=0;strokeWidth=1;" vertex="1" parent="GFgm7ISbEf7m12YMh4iF-4">
          <mxGeometry x="45" y="80" width="10" height="360" as="geometry" />
        </mxCell>
        <mxCell id="GFgm7ISbEf7m12YMh4iF-6" value="asking information" style="verticalAlign=bottom;endArrow=block;entryX=0;entryY=0;shadow=0;strokeWidth=1;" edge="1" parent="GFgm7ISbEf7m12YMh4iF-4">
          <mxGeometry relative="1" as="geometry">
            <mxPoint x="-125" y="120.00000000000011" as="sourcePoint" />
            <mxPoint x="45" y="120.00000000000011" as="targetPoint" />
          </mxGeometry>
        </mxCell>
        <mxCell id="GFgm7ISbEf7m12YMh4iF-35" value="&lt;font style=&quot;font-size: 19px&quot;&gt;looping infinitly&lt;/font&gt;" style="text;html=1;strokeColor=none;fillColor=none;align=center;verticalAlign=middle;whiteSpace=wrap;rounded=0;" vertex="1" parent="1">
          <mxGeometry x="750" y="320" width="80" height="130" as="geometry" />
        </mxCell>
        <mxCell id="GFgm7ISbEf7m12YMh4iF-36" value="show trade and register it" style="verticalAlign=bottom;endArrow=block;shadow=0;strokeWidth=1;" edge="1" parent="1">
          <mxGeometry relative="1" as="geometry">
            <mxPoint x="341" y="420" as="sourcePoint" />
            <mxPoint x="180" y="420" as="targetPoint" />
          </mxGeometry>
        </mxCell>
      </root>
    </mxGraphModel>
  </diagram>
</mxfile>
